<svg xmlns="http://www.w3.org/2000/svg" viewBox="0 0 64 64" id="purse-and-glass"><path d="M16.12 48.5H9.99c-3.791.102-6.844-3.804-5.83-7.458l3.5-13.999c.633-2.52 2.803-4.303 5.36-4.503v1.96a1 1 0 1 0 2 0v-2h22v2a1 1 0 1 0 2 0v-1.96c2.558.2 4.728 1.983 5.36 4.502l3.2 12.8c.339 1.266 2.238.798 1.94-.485l-3.2-12.8a7.992 7.992 0 0 0-7.3-6.037V17.5c0-7.168-5.831-13-13-13s-13 5.832-13 13v3.02a7.993 7.993 0 0 0-7.3 6.038l-3.5 14a7.96 7.96 0 0 0 1.461 6.867 7.96 7.96 0 0 0 6.31 3.075h6.13c1.312-.024 1.317-1.976 0-2Zm-1.1-31c.606-14.596 21.4-14.586 22 0v3h-22v-3Z"></path><path d="M40.02 31.5a1 1 0 0 0-1-1h-26a1 1 0 1 0 0 2h26a1 1 0 0 0 1-1Z"></path><path d="M36.02 33.5v2c.022 1.314 1.979 1.315 2 0v-2c-.021-1.314-1.978-1.315-2 0zm23 14h-.525c-3.261-8.922-16.236-7.474-17.416 2h-2.117c-1.183-9.48-14.159-10.916-17.416-2-4.667-.34-4.664 6.34 0 6 3.261 8.922 16.236 7.474 17.416-2h2.117c1.183 9.48 14.159 10.916 17.416 2 4.315.386 4.83-5.75.526-6zm-38 4c-1.314-.023-1.313-1.977 0-2v2zm9 6c-3.86 0-7-3.14-7-7 .353-9.274 13.65-9.271 14 0 0 3.86-3.14 7-7 7zm20 0c-3.86 0-7-3.14-7-7 .353-9.274 13.65-9.271 14 0 0 3.86-3.14 7-7 7zm9-6v-2c1.315.023 1.314 1.977 0 2zm-16-34c1.655 0 3 1.794 3 4 .003 1.3 1.998 1.326 2 0 0-2.206 1.346-4 3-4 .905-.036 1.309-1.045.71-1.71-.211-.146-.428-.295-.71-.29-1.654 0-3-1.794-3-4-.009-.946-1.261-1.373-1.787-.587a.977.977 0 0 0-.212.587c0 2.206-1.346 4-3 4-1.292.046-1.33 1.98 0 2zm4-2.415a5.573 5.573 0 0 0 1.243 1.415c-.48.382-.898.863-1.242 1.415a5.573 5.573 0 0 0-1.243-1.415c.48-.382.898-.863 1.243-1.415zm5 18.415c1.655 0 3 1.794 3 4 .046 1.315 1.938 1.308 2 0 0-2.206 1.346-4 3-4 1.098.015 1.377-1.589.334-1.933-1.857-.023-3.32-1.625-3.333-4.067-.054-1.3-1.944-1.309-2 0 0 2.206-1.346 4-3 4-1.293.04-1.323 1.983 0 2zm4-2.415a5.573 5.573 0 0 0 1.243 1.415c-.48.382-.898.863-1.242 1.415a5.573 5.573 0 0 0-1.243-1.415c.48-.382.898-.863 1.243-1.415zM2.437 15.29c.167.123.362.21.585.21 1.654 0 3 1.794 3 4 .019 1.308 1.962 1.324 2 0 0-2.206 1.345-4 3-4 1.322-.05 1.292-1.95 0-2-1.655 0-3-1.794-3-4-.076-1.308-1.923-1.314-2 0 0 2.206-1.346 4-3 4-.912-.037-1.39 1.311-.585 1.79zm4.585-2.205A5.573 5.573 0 0 0 8.263 14.5c-.48.382-.898.863-1.242 1.415A5.573 5.573 0 0 0 5.778 14.5c.48-.382.898-.863 1.243-1.415z"></path></svg>