<svg xmlns="http://www.w3.org/2000/svg" viewBox="0 0 48 48" id="makeup-kit"><path d="M47 38H46c0-1.23.12-2.55-1.39-3.52C52.51 24.86 45.76 10 33 10S13.48 24.85 21.39 34.48C19.86 35.46 20 36.9 20 38H19a1 1 0 0 0-1 1v5a4 4 0 0 0 4 4H44a4 4 0 0 0 4-4V39A1 1 0 0 0 47 38zM33 12a13 13 0 0 1 9.36 22H39.3c8.87-6.23 4.29-20-6.3-20S17.83 27.77 26.7 34H23.64A13 13 0 0 1 33 12zm0 22a9 9 0 1 1 9-9A9 9 0 0 1 33 34zm-9.78 2H43a1 1 0 0 1 1 1v1H22C22 36.89 21.85 36 23.22 36zm13.5 4c-.63 2.53 0 2-6.16 2-.92 0-1-.81-1.28-2zM46 44a2 2 0 0 1-2 2H22a2 2 0 0 1-2-2V40h7.22l.43 1.73A3 3 0 0 0 30.56 44h4.88a3 3 0 0 0 2.91-2.27L38.78 40H46zM15 26H14V17a1 1 0 0 0-1-1c0-13.66.29-14-.86-15.14-2.8-2.8-9.09 1.62-9.13 6 0 .3 0 .68 0 9.15a1 1 0 0 0-1 1v9H1a1 1 0 0 0-1 1V44a4 4 0 0 0 4 4h8a4 4 0 0 0 4-4V27A1 1 0 0 0 15 26zM6.65 3.65c1.08-1.08 3.23-2.21 4.07-1.37.64.64.19 2.51-1.37 4.07s-3.43 2-4.07 1.37S5.09 5.21 6.65 3.65zM5 9.82c2 .65 4.29-.58 5.76-2.06C11.1 7.43 11 6.1 11 16H5zM4 18h8v8H4zM14 28v2H2V28zM12 46H4a2 2 0 0 1-2-2V32H14V44A2 2 0 0 1 12 46z"></path></svg>