<svg xmlns="http://www.w3.org/2000/svg" width="32" height="32" id="office"><path style="line-height:normal;text-indent:0;text-align:start;text-decoration-line:none;text-decoration-style:solid;text-decoration-color:#000;text-transform:none;block-progression:tb;white-space:normal;isolation:auto;mix-blend-mode:normal;solid-color:#000;solid-opacity:1" d="M22.482 2.994a.5.5 0 0 0-.062.01H9.99c-1.1 0-2 .9-2 2v1h-.986c-1.1 0-2 .9-2 2v20c0 1.1.9 2 2 2h15c1.1 0 2-.9 2-2v-1h.986c1.1 0 2-.9 2-2V7.58a.5.5 0 0 0-.19-.473l-3.925-3.931a.5.5 0 0 0-.393-.182zM9.99 4h12v2c0 1.1.9 2 2 2h2v17c0 .563-.437 1-1 1h-.986V10.576a.5.5 0 0 0-.19-.472l-3.92-3.92-.005-.01a.5.5 0 0 0-.393-.182.5.5 0 0 0-.062.01H8.99v-1c0-.563.438-1 1-1V4zm13 .707L25.283 7H23.99c-.562 0-1-.437-1-1V4.707zM7.004 7h12v2c0 1.1.9 2 2 2h2v17c0 .563-.437 1-1 1h-15c-.563 0-1-.437-1-1V8c0-.563.437-1 1-1zm13 .707L22.297 10h-1.293c-.563 0-1-.437-1-1V7.707zM8.504 10a.5.5 0 0 0-.5.5v3a.5.5 0 0 0 .5.5h3a.5.5 0 0 0 .5-.5v-3a.5.5 0 0 0-.5-.5h-3zm5.006 0a.5.5 0 1 0 0 1h4a.5.5 0 1 0 0-1h-4zm-4.506 1h2v2h-2v-2zm4.506 1a.5.5 0 1 0 0 1h6.978a.5.5 0 1 0 0-1H13.51zm-5.006 4a.5.5 0 0 0-.5.5v3a.5.5 0 0 0 .5.5h3a.5.5 0 0 0 .5-.5v-3a.5.5 0 0 0-.5-.5h-3zm5.006 0a.5.5 0 1 0 0 1h4a.5.5 0 1 0 0-1h-4zm-4.506 1h2v2h-2v-2zm4.506 1a.5.5 0 1 0 0 1h6.978a.5.5 0 1 0 0-1H13.51zm-5.006 4a.5.5 0 0 0-.5.5v3a.5.5 0 0 0 .5.5h3a.5.5 0 0 0 .5-.5v-3a.5.5 0 0 0-.5-.5h-3zm5.006 0a.5.5 0 1 0 0 1h4a.5.5 0 1 0 0-1h-4zm-4.506 1h2v2h-2v-2zm4.506 1a.5.5 0 1 0 0 1h6.978a.5.5 0 1 0 0-1H13.51z" color="#000" enable-background="accumulate" font-family="sans-serif" font-weight="400" overflow="visible"></path></svg>