<svg xmlns="http://www.w3.org/2000/svg" enable-background="new 0 0 512 512" viewBox="0 0 512 512" id="marketing-flow"><linearGradient id="a" x1="80.116" x2="431.877" y1="431.877" y2="80.116" gradientUnits="userSpaceOnUse"><stop offset="0" stop-color="#be53ff"></stop><stop offset="1" stop-color="#6be2dd"></stop></linearGradient><path fill="url(#a)" d="M462.1,325.6c-15.7-9-34.6-7.1-48.1,3.7l-39.6-22.9c6.6-15.5,10.3-32.5,10.3-50.4c0-17.9-3.7-35-10.3-50.5l39.7-22.9c13.4,10.7,32.4,12.7,48.1,3.7c20.5-11.8,27.4-37.9,15.6-58.4c-11.8-20.4-37.9-27.4-58.4-15.6c-15.6,9-23.5,26.3-20.9,43.5l-39.7,22.9c-20.5-27.3-51.7-46.1-87.2-50.4V82.5c15.9-6.2,27.2-21.7,27.2-39.8C298.7,19.2,279.5,0,256,0s-42.7,19.2-42.7,42.7c0,18.1,11.3,33.5,27.2,39.8v45.8c-35.6,4.3-66.7,23.1-87.3,50.4l-39.7-22.9c2.6-16.9-5.2-34.4-20.8-43.4c-20.5-11.8-46.5-4.8-58.4,15.6c-11.8,20.4-4.8,46.6,15.6,58.4c15.7,9.1,34.7,7,48.1-3.7l39.6,22.9c-6.6,15.5-10.3,32.5-10.3,50.4c0,17.9,3.7,34.9,10.3,50.4L98,329.3c-13.3-10.7-32.4-12.7-48-3.7c-20.4,11.8-27.4,38-15.6,58.4c11.7,20.3,37.9,27.4,58.4,15.6c15.6-9,23.4-26.5,20.8-43.4l39.7-22.9c20.5,27.3,51.7,46.1,87.2,50.4v45.9c-15.9,6.2-27.2,21.7-27.2,39.8c0,23.6,19.2,42.7,42.7,42.7s42.7-19.2,42.7-42.7c0-18.1-11.3-33.5-27.2-39.8v-45.8c35.6-4.3,66.7-23.1,87.3-50.4l39.7,22.9c-2.6,16.9,5.2,34.4,20.8,43.4c20.4,11.8,46.5,4.8,58.4-15.6C489.5,363.6,482.5,337.4,462.1,325.6z M423.2,119.1c16.8-9.7,38.2-3.8,47.7,12.8c9.7,16.7,3.9,38.1-12.8,47.7c-16.7,9.6-38.1,4-47.7-12.8C400.8,150.1,406.4,128.8,423.2,119.1z M400.4,163.6c0.9,2.4,1.9,4.8,3.3,7.1c1.3,2.3,2.8,4.4,4.5,6.4L371,198.5c-2.3-4.7-4.9-9.1-7.8-13.4L400.4,163.6z M221,42.7c0-19.3,15.7-35,35-35s35,15.7,35,35s-15.7,35-35,35S221,62,221,42.7z M256,85.5c2.7,0,5.2-0.3,7.8-0.7v42.9c-2.6-0.1-5.2-0.2-7.8-0.2c-2.6,0-5.2,0.1-7.8,0.2V84.7C250.7,85.2,253.3,85.5,256,85.5z M53.8,179.6c-16.7-9.7-22.5-31-12.8-47.7c9.6-16.7,31-22.5,47.7-12.8c16.7,9.6,22.4,31.1,12.8,47.7C91.9,183.6,70.5,189.3,53.8,179.6z M103.8,177.1c1.7-2,3.2-4.1,4.5-6.4c1.3-2.3,2.4-4.7,3.2-7.1l37.2,21.4c-2.8,4.3-5.4,8.8-7.8,13.4L103.8,177.1z M88.8,392.9c-16.8,9.7-38.1,3.9-47.7-12.8c-9.6-16.7-3.9-38.1,12.8-47.7c16.7-9.6,38.1-4,47.7,12.8C111.2,361.8,105.5,383.3,88.8,392.9z M111.5,348.4c-0.9-2.4-1.9-4.8-3.2-7.1c-1.3-2.3-2.9-4.4-4.5-6.3l37.1-21.5c2.3,4.7,4.9,9.1,7.8,13.4L111.5,348.4z M290.9,469.3c0,19.3-15.7,35-35,35s-35-15.7-35-35s15.7-35,35-35S290.9,450,290.9,469.3z M256,426.5c-2.7,0-5.3,0.3-7.8,0.7v-42.9c2.6,0.2,5.2,0.2,7.8,0.2c2.6,0,5.2-0.1,7.8-0.2v42.9C261.2,426.8,258.6,426.5,256,426.5z M330.8,350.8c-9.1,7.2-19.3,13.2-30.3,17.6V315c0-2.2-1.7-3.9-3.9-3.9c-2.1,0-3.9,1.7-3.9,3.9v56.2c-11.6,3.7-24,5.7-36.8,5.7c-12.8,0-25.2-2-36.7-5.7V315c0-2.2-1.7-3.9-3.9-3.9c-2.1,0-3.9,1.7-3.9,3.9v53.4c-11-4.4-21.2-10.3-30.3-17.5v-34c0-25.6,20.8-46.5,46.4-46.5h7.3c6.4,5.4,14.7,8.7,23.8,8.7c9.1,0,17.4-3.3,23.8-8.7h2c25.6,0,46.5,20.9,46.5,46.5V350.8z M287.7,211.6v30.6c0,16-13.1,29.1-29.1,29.1c-16,0-29.1-13.1-29.1-29.1v-30.6H287.7z M229.5,203.8v-17.2c0-6.4,5.2-11.6,11.6-11.6h66.5l-18.2,28.8H229.5z M338.6,344.1v-27.3c0-28.3-21.8-51.6-49.4-54c4-5.9,6.3-13,6.3-20.6v-33.4l22.5-35.7c0.8-1.2,0.8-2.7,0.1-3.9c-0.7-1.2-2-2-3.4-2h-73.6c-10.7,0-19.4,8.7-19.4,19.4v55.6c0,7.5,2.3,14.5,6.2,20.4h-0.3c-29.9,0-54.1,24.4-54.1,54.3v27.3c-23.5-22.1-38.3-53.4-38.3-88.1c0-66.7,54.2-120.9,120.9-120.9S376.9,189.3,376.9,256C376.9,290.8,362.1,322.1,338.6,344.1z M363.3,326.9c2.8-4.3,5.4-8.8,7.8-13.4l37.2,21.4c-1.7,2-3.2,4.1-4.5,6.3c-1.3,2.3-2.4,4.7-3.2,7.1L363.3,326.9z M471,380.1c-9.7,16.7-31,22.5-47.7,12.8c-16.7-9.7-22.5-31-12.8-47.7c9.7-16.7,31-22.5,47.7-12.8C474.9,342,480.6,363.4,471,380.1z"></path></svg>