<svg xmlns="http://www.w3.org/2000/svg" viewBox="0 0 512 512" id="shoes"><path fill="none" stroke="#000" stroke-linecap="round" stroke-linejoin="round" stroke-width="16" d="M116.94,123.77,37.09,260.3a20.82,20.82,0,0,0,6.84,28.1l103.35,65.4a11.74,11.74,0,0,0,9.76,1.3h0a11.77,11.77,0,0,1,14.78,8l1.49,5.19a11.78,11.78,0,0,0,6.2,7.36L364.91,465a151.35,151.35,0,0,0,77.49,14.55h0a40.79,40.79,0,0,0,35-26.37h0a40.8,40.8,0,0,0-4.89-37.81c-76.14-58.9-142.72-128.61-170.77-241.87L304,161.37a27,27,0,0,0-22.46-31.61h0a27,27,0,0,0-22.69,7.09l-29.49,27.94a46.66,46.66,0,0,1-46.71,10.44l-26-8.58a46.67,46.67,0,0,1-31.93-41.06h0A4.17,4.17,0,0,0,116.94,123.77Z"></path><path fill="none" stroke="#000" stroke-linecap="round" stroke-linejoin="round" stroke-width="16" d="M49.76,238.64l130.06,82.61,25.76,28.33L378.35,432a110.78,110.78,0,0,0,77.79,6.61L479.41,432"></path><line x1="96" x2="442.4" y1="480" y2="480" fill="none" stroke="#000" stroke-linecap="round" stroke-linejoin="round" stroke-width="16"></line><line x1="32" x2="64" y1="480" y2="480" fill="none" stroke="#000" stroke-linecap="round" stroke-linejoin="round" stroke-width="16"></line><line x1="255" x2="310.51" y1="257" y2="203.49" fill="none" stroke="#000" stroke-linecap="round" stroke-linejoin="round" stroke-width="16"></line><line x1="288.52" x2="329.92" y1="290.52" y2="251.11" fill="none" stroke="#000" stroke-linecap="round" stroke-linejoin="round" stroke-width="16"></line><line x1="320.49" x2="353.09" y1="322.49" y2="291.9" fill="none" stroke="#000" stroke-linecap="round" stroke-linejoin="round" stroke-width="16"></line></svg>