<svg xmlns="http://www.w3.org/2000/svg" enable-background="new 0 0 64 64" viewBox="0 0 64 64" id="sport"><path d="M30.415,33.242c0.391,0.391,0.902,0.586,1.414,0.586s1.024-0.195,1.415-0.586c0.781-0.781,0.781-2.048,0-2.828L31.828,29
			l2.121-2.122l1.415,1.415c0.39,0.391,0.902,0.586,1.414,0.586s1.024-0.195,1.414-0.586c0.781-0.781,0.781-2.047,0-2.828
			l-1.415-1.415l0,0c0.781-0.781,0.781-2.047,0-2.828s-2.048-0.781-2.828,0l0,0l-1.414-1.414c-0.78-0.781-2.048-0.781-2.828,0
			c-0.781,0.781-0.781,2.047,0,2.828l1.414,1.414L29,26.172l-1.414-1.414c-0.781-0.781-2.047-0.781-2.829,0
			c-0.781,0.781-0.781,2.048,0,2.828L26.172,29l-2.121,2.122l-1.415-1.415c-0.78-0.781-2.048-0.781-2.828,0
			c-0.781,0.781-0.781,2.047,0,2.828l1.415,1.415l0,0c-0.781,0.781-0.781,2.047,0,2.828c0.391,0.391,0.902,0.586,1.414,0.586
			s1.024-0.195,1.414-0.586l0,0l1.414,1.414c0.39,0.391,0.902,0.586,1.414,0.586s1.024-0.195,1.414-0.586
			c0.781-0.781,0.781-2.047,0-2.828l-1.414-1.414L29,31.828L30.415,33.242z"></path><path d="M59.055,57.487C61.504,54.675,63,51.013,63,47c0-3.972-1.463-7.602-3.868-10.402c-0.084-0.114-0.178-0.218-0.282-0.31
			c-1.241-1.372-2.706-2.535-4.351-3.412c1.266-3.289,2.061-6.736,2.366-10.274c0-0.002,0-0.004,0.001-0.006
			c0.002-0.025,0.006-0.049,0.008-0.073c0.411-4.887-0.114-9.749-1.562-14.452c-0.793-2.577-2.804-4.589-5.38-5.38
			c-4.705-1.448-9.567-1.972-14.451-1.562c-0.018,0.001-0.035,0.004-0.052,0.006c-0.014,0.002-0.028,0.003-0.042,0.004
			c-8.798,0.761-17.09,4.626-23.356,10.892C5.557,18.503,1.668,27.08,1.082,36.179c-0.314,4.714,0.245,9.401,1.663,13.933
			c0.767,2.453,2.689,4.375,5.142,5.144c3.716,1.163,7.538,1.748,11.392,1.748c0.845,0,1.692-0.027,2.539-0.084
			c3.814-0.247,7.525-1.061,11.058-2.42c0.623,1.168,1.394,2.241,2.275,3.214c0.029,0.039,0.065,0.07,0.097,0.107
			C38.174,60.996,42.352,63,47,63c4.75,0,9.01-2.092,11.943-5.39C58.982,57.57,59.019,57.531,59.055,57.487z M54,47
			c0-2.673,1.162-5.09,3.034-6.563C58.273,42.325,59,44.578,59,47s-0.727,4.675-1.966,6.563C55.162,52.09,54,49.673,54,47z
			 M48.755,6.513c1.308,0.401,2.33,1.424,2.732,2.732c1.118,3.633,1.618,7.37,1.5,11.136c-3.803-0.183-7.645-1.909-10.552-4.815
			c-2.907-2.908-4.636-6.751-4.816-10.553C41.382,4.893,45.121,5.394,48.755,6.513z M9.082,51.437
			c-1.202-0.376-2.144-1.317-2.52-2.52c-1.076-3.438-1.593-6.977-1.557-10.546c3.584,0.331,7.099,2.018,9.852,4.771
			c2.754,2.754,4.427,6.265,4.766,9.852C16.056,53.028,12.519,52.513,9.082,51.437z M23.615,52.724
			c-0.404-4.545-2.489-8.971-5.929-12.411c-3.438-3.438-7.865-5.519-12.408-5.926c0.933-7.362,4.285-14.234,9.58-19.53
			c5.099-5.099,11.698-8.412,18.77-9.479c0.255,4.757,2.36,9.397,5.979,13.016c3.616,3.617,8.253,5.703,13.008,5.959
			c-0.363,2.438-0.999,4.813-1.883,7.105C49.533,31.169,48.287,31,47,31c-4.578,0-8.701,1.943-11.62,5.035
			c-0.07,0.067-0.135,0.138-0.196,0.215C32.594,39.094,31,42.86,31,47c0,1.296,0.172,2.55,0.464,3.757
			C28.94,51.73,26.311,52.384,23.615,52.724z M37.301,54.037C35.86,52.057,35,49.63,35,47s0.86-5.057,2.301-7.037
			C39.552,41.335,41,43.997,41,47S39.552,52.665,37.301,54.037z M40.22,56.892C43.16,54.698,45,51.041,45,47s-1.84-7.698-4.78-9.892
			C42.151,35.781,44.485,35,47,35c2.746,0,5.271,0.937,7.296,2.494C51.628,39.73,50,43.213,50,47s1.628,7.27,4.296,9.506
			C52.271,58.063,49.746,59,47,59C44.485,59,42.151,58.219,40.22,56.892z"></path></svg>