<svg xmlns="http://www.w3.org/2000/svg" width="21" height="30" viewBox="0 0 21 30" id="watch"><path fill="#000" fill-rule="evenodd" d="M593.269 208.651a2.32 2.32 0 0 0 .686-1.656c0-1.209-.932-2.176-2.115-2.299a9.511 9.511 0 0 0-2.309-4.209l-1.002-8.016a.536.536 0 0 0-.533-.471h-10.844a.54.54 0 0 0-.535.471l-.998 7.982c-1.68 1.785-2.619 4.096-2.619 6.541 0 2.447.939 4.756 2.619 6.543l.998 7.982a.541.541 0 0 0 .535.471h10.844c.271 0 .5-.203.533-.471l1.002-8.016a9.493 9.493 0 0 0 2.309-4.209c.536-.054 1.044-.257 1.429-.643zm-.389-1.657c0 .34-.133.656-.373.896a1.224 1.224 0 0 1-.438.285 8.91 8.91 0 0 0 0-2.364c.473.185.811.646.811 1.183zm-15.254-13.918h9.895l.785 6.285c-.074-.057-.158-.096-.232-.148-.156-.111-.318-.205-.48-.307a9.42 9.42 0 0 0-1.602-.818 9.372 9.372 0 0 0-1.152-.359c-.176-.043-.348-.098-.523-.131a9.635 9.635 0 0 0-1.742-.176c-.594 0-1.176.068-1.744.172-.182.035-.354.09-.529.131a9.59 9.59 0 0 0-1.148.354 9.005 9.005 0 0 0-.561.24 9.154 9.154 0 0 0-1.035.561c-.164.104-.33.197-.486.309-.074.053-.154.09-.225.143l.779-6.256zm9.894 27.838h-9.895l-.781-6.254c.07.055.15.09.225.143.156.111.322.205.484.307a9.365 9.365 0 0 0 1.598.802c.375.145.756.256 1.15.354.174.041.346.096.525.129.57.105 1.15.174 1.746.174.59 0 1.17-.07 1.74-.176.18-.033.355-.09.531-.135a9.217 9.217 0 0 0 1.143-.354 9.33 9.33 0 0 0 1.599-.814c.164-.105.33-.201.49-.314.074-.053.154-.094.229-.148l-.784 6.286zm1.112-8.01c-1.625 1.668-3.777 2.588-6.059 2.588a8.427 8.427 0 0 1-6.055-2.545 8.458 8.458 0 0 1-2.445-5.953c0-2.23.869-4.346 2.445-5.951a8.425 8.425 0 0 1 6.055-2.545c2.279 0 4.432.918 6.059 2.588 1.172 1.201 1.957 2.67 2.27 4.244.113.559.17 1.121.17 1.664a8.64 8.64 0 0 1-.17 1.668c-.311 1.569-1.096 3.039-2.27 4.242zm-5.522-6.13v-5.201a.538.538 0 0 0-1.076 0v5.426a.54.54 0 0 0 .158.379l2.555 2.557a.544.544 0 0 0 .762 0 .538.538 0 0 0 0-.762l-2.399-2.399z" transform="translate(-573 -192)"></path></svg>