<?xml version="1.0" encoding="utf-8"?>
<!-- Generator: Adobe Illustrator 26.0.3, SVG Export Plug-In . SVG Version: 6.00 Build 0)  -->
<svg version="1.1" id="Layer_1" xmlns="http://www.w3.org/2000/svg" xmlns:xlink="http://www.w3.org/1999/xlink" x="0px" y="0px"
	 viewBox="0 0 4000 4000" style="enable-background:new 0 0 4000 4000;" xml:space="preserve">
<style type="text/css">
	.st0{fill:#FFFFFF;}
	.st1{font-family:'BodrumSweet-16BoldItalic';}
	.st2{font-size:410.6518px;}
	.st3{font-family:'BodrumSweet-16Bold';}
	.st4{font-size:233.2327px;}
	.st5{fill:url(#SVGID_1_);}
	.st6{fill:url(#SVGID_00000090294257807939319560000004605572622686275757_);}
	.st7{fill:#814894;}
	.st8{fill:url(#SVGID_00000168826968082369448900000005825928477508005504_);}
	.st9{fill:url(#SVGID_00000028303303443722390250000016061990990719792060_);}
	.st10{fill:#E87C34;}
	.st11{fill:url(#SVGID_00000095338912691388430120000006123079885202874016_);}
	.st12{fill:url(#SVGID_00000052785743266322323110000004651460431186829721_);}
	.st13{fill:url(#SVGID_00000037680729181606937270000015366796737181624961_);}
	.st14{fill:url(#SVGID_00000021835807532816004730000009462564624450191033_);}
	.st15{fill:url(#SVGID_00000096055122970650165000000004047202631552484992_);}
	.st16{fill:url(#SVGID_00000025409389506036860190000000426293878009777815_);}
	.st17{fill:url(#SVGID_00000056389118238816736220000006728249451804023473_);}
	.st18{fill:url(#SVGID_00000170276169322216034830000006213669237537287558_);}
	.st19{fill:url(#SVGID_00000001626544397338205910000010478095412842042023_);}
	.st20{fill:url(#SVGID_00000134928825229226466730000008575339945457029796_);}
	.st21{font-family:'Arial-ItalicMT';}
	.st22{font-size:120px;}
	.st23{font-family:'Arial-BoldMT';}
</style>
<rect x="2.57" y="15.79" class="st0" width="4000" height="4000"/>
<text transform="matrix(0.949 0 0 1 317.3804 2483.7732)" class="st1 st2">NONAVM</text>
<text transform="matrix(0.949 0 0 1 346.3813 3026.7634)" class="st3 st4">www.nonavm.com</text>
<g>
	<g>
		
			<linearGradient id="SVGID_1_" gradientUnits="userSpaceOnUse" x1="731.4495" y1="841.7543" x2="1134.7198" y2="841.7543" gradientTransform="matrix(1.0142 4.765136e-04 -0.4257 0.9858 672.2822 22.4917)">
			<stop  offset="0" style="stop-color:#814894"/>
			<stop  offset="0.4497" style="stop-color:#804792"/>
			<stop  offset="0.6117" style="stop-color:#7D488D"/>
			<stop  offset="0.7271" style="stop-color:#7A4887"/>
			<stop  offset="0.8205" style="stop-color:#75497D"/>
			<stop  offset="0.9004" style="stop-color:#6E4A71"/>
			<stop  offset="0.97" style="stop-color:#654962"/>
			<stop  offset="1" style="stop-color:#60485A"/>
		</linearGradient>
		<path class="st5" d="M1241.37,651.71c-51.42,31.32-155.13,103.81-184.33,201.58c-39.44,132.06,37.99,220.58,181.96,198.85
			s224.78-177.28,229.52-215.75c4.74-38.47,12.69-117.97-93.22-138.54c22.6,4.39,31.85,26.41,26.43,49.49
			c-2.7,11.5-8.66,23.36-13.68,35.03c-14.89,34.56-27.62,69.37-43.76,103.91c-14.78,31.64-43.96,71.92-83.91,78.68
			c0,0-45.44,11.52-100.87-12.87c-55.44-24.39-51.8-108.17-51.8-108.17s6.6-47.27,39.58-97.18c8.39-12.69,18.32-25.68,29.24-38.25
			c6.53-7.5,13.16-13.95,19.3-19.85c4.97-4.77,9.93-9.26,14.53-13.13c13.97-11.77,25.59-19.68,34.2-25.56"/>
		
			<linearGradient id="SVGID_00000051367781713966765510000017053398852204967327_" gradientUnits="userSpaceOnUse" x1="2702.4626" y1="2270.9258" x2="3105.5952" y2="2270.9258" gradientTransform="matrix(-1.0142 -4.765136e-04 0.4257 -0.9858 3293.6277 3057.6172)">
			<stop  offset="0" style="stop-color:#814894"/>
			<stop  offset="0.4497" style="stop-color:#804792"/>
			<stop  offset="0.6117" style="stop-color:#7D488D"/>
			<stop  offset="0.7271" style="stop-color:#7A4887"/>
			<stop  offset="0.8205" style="stop-color:#75497D"/>
			<stop  offset="0.9004" style="stop-color:#6E4A71"/>
			<stop  offset="0.97" style="stop-color:#654962"/>
			<stop  offset="1" style="stop-color:#60485A"/>
		</linearGradient>
		<path style="fill:url(#SVGID_00000051367781713966765510000017053398852204967327_);" d="M1315.43,1026.28
			c0,0,165.67-82.72,205.11-214.78c9.89-33.12,12.89-65.44,7.74-94.2c-4.86-27.13-16.97-50.86-35.79-68.94
			c-18.82-18.08-44.19-30.29-73.85-35.69c-38.38-7-84.51-4.67-130.56,14.39c-42.51,17.6-78.83,45.86-110.2,79.87
			c-1.52,1.64-2.95,3.36-4.38,5.04c-25.92,30.41-47.46,64.19-58.38,97c-2.78,8.35-4.93,16.65-6.41,24.81
			c-5.13,28.23-2.22,54.69,8.2,76.43c6.74,14.06,16.69,25.87,29.72,34.94c15.54,10.82,44.79,19.51,67.93,21.6
			c-22.6-4.39-44.11-26.21-38.69-49.29c2.7-11.5,8.66-23.36,13.68-35.03c14.89-34.56,27.62-69.37,43.76-103.91
			c14.78-31.64,43.96-71.92,83.91-78.68c0,0,45.44-11.52,100.87,12.87c16.36,7.2,27.32,19.66,35.42,34.12
			c7.73,13.81,12.71,29.45,14.76,46.34c1.17,9.62,1.4,19.64,0.65,29.95c-0.74,10.18-3.86,20.86-7.59,31.62
			c-3.49,10.05-7.78,20.15-12.56,30.22c-1.22,2.57-2.49,5.13-3.8,7.7c-10.17,19.86-23.34,39.64-40.02,57.65
			c-2.47,2.67-5.01,5.3-7.63,7.87C1336.1,1018.41,1315.43,1026.28,1315.43,1026.28z"/>
	</g>
	<g>
		<path class="st7" d="M1599.87,825.76l7.02-12.87c15.04-25.65,30.09-51.28,45.13-76.93c25.27-43.1,50.68-96.11,81.13-117.29
			c3.51-2.44,7.02-4.44,10.47-5.95c27.76-12.09,46.35,10.77,55.23,48.06l26.45,169.26l5.04,14.69c0,0,25.51,81.94,95.45,3.71
			c0,0-74.82,131.77-74.82,131.78c-16.1,28.35-35.58,58.25-54.85,69.89c-8.36,5.05-16.3,5.78-23.67,4.64
			c-9.66-1.49-17.76-4.78-23.69-16.46c-4.4-8.67-7.44-19.63-10.58-30.28c-6.71-22.75-12.02-47.49-16.77-72.83L1706.6,834.4"/>
		
			<linearGradient id="SVGID_00000039851653414792684630000013892201530847961001_" gradientUnits="userSpaceOnUse" x1="1486.3679" y1="1034.8329" x2="1660.4149" y2="860.7859" gradientTransform="matrix(1.0446 -6.955818e-04 -6.955818e-04 1 -74.5099 1.1613)">
			<stop  offset="0" style="stop-color:#814894"/>
			<stop  offset="0.4497" style="stop-color:#804792"/>
			<stop  offset="0.6117" style="stop-color:#7D488D"/>
			<stop  offset="0.7271" style="stop-color:#7A4887"/>
			<stop  offset="0.8205" style="stop-color:#75497D"/>
			<stop  offset="0.9004" style="stop-color:#6E4A71"/>
			<stop  offset="0.97" style="stop-color:#654962"/>
			<stop  offset="1" style="stop-color:#60485A"/>
		</linearGradient>
		<path style="fill:url(#SVGID_00000039851653414792684630000013892201530847961001_);" d="M1501.34,996.13
			c0.01-0.03,0.02-0.06,0.02-0.1c0.23-0.91,0.71-1.74,1.18-2.56c10.7-18.47,21.29-37.01,31.92-55.52
			c12.14-21.14,24.28-42.28,36.42-63.41c9.39-16.35,18.78-32.71,28.18-49.06c1.98-3.45,3.96-6.9,5.94-10.35
			c0,0,74.95-99.63,102.14,20.4c0,0-103.79,178.1-103.88,178.26c-1.41,2.41-4.44,4.64-6.43,6.59c-5.26,5.14-10.77,10.04-16.57,14.6
			c-12.4,9.76-28.71,21.14-45.62,20.38c-24.09-1.08-30.17-29.8-32.51-47.91c-0.36-2.75-0.65-5.51-0.87-8.28
			C1501.18,998.17,1501.11,997.13,1501.34,996.13z"/>
		
			<linearGradient id="SVGID_00000171721867606677469040000005358107990741785787_" gradientUnits="userSpaceOnUse" x1="1873.4569" y1="686.8015" x2="1974.4083" y2="812.4446" gradientTransform="matrix(1.0446 -6.955818e-04 -6.955818e-04 1 -74.5099 1.1613)">
			<stop  offset="0" style="stop-color:#814894"/>
			<stop  offset="0.4497" style="stop-color:#804792"/>
			<stop  offset="0.6117" style="stop-color:#7D488D"/>
			<stop  offset="0.7271" style="stop-color:#7A4887"/>
			<stop  offset="0.8205" style="stop-color:#75497D"/>
			<stop  offset="0.9004" style="stop-color:#6E4A71"/>
			<stop  offset="0.97" style="stop-color:#654962"/>
			<stop  offset="1" style="stop-color:#60485A"/>
		</linearGradient>
		<path style="fill:url(#SVGID_00000171721867606677469040000005358107990741785787_);" d="M1825.28,829.91l110.43-181.68
			c0,0,93.62-100.83,101.75,18.93l-115.88,189.75C1921.59,856.91,1852.89,952.75,1825.28,829.91z"/>
	</g>
	<g>
		<path class="st10" d="M527.73,703.5l10.73-19.68c23-39.21,46-78.41,68.99-117.62c38.64-65.89,77.48-146.94,124.03-179.32
			c5.37-3.73,10.73-6.79,16.01-9.09c42.43-18.48,70.86,16.47,84.43,73.48l40.44,258.77l7.7,22.46c0,0,39,125.27,145.93,5.67
			c0,0-114.39,201.46-114.39,201.46c-24.61,43.34-54.4,89.05-83.86,106.85c-12.78,7.72-24.92,8.83-36.19,7.1
			c-14.77-2.27-27.15-7.3-36.21-25.16c-6.73-13.25-11.37-30.01-16.17-46.3c-10.26-34.78-18.38-72.61-25.64-111.34l-22.6-154.08"/>
		
			<linearGradient id="SVGID_00000022544981362248255910000008931029100638471834_" gradientUnits="userSpaceOnUse" x1="398.0636" y1="1022.4568" x2="664.1537" y2="756.3666" gradientTransform="matrix(1.0446 -6.955818e-04 -6.955818e-04 1 -74.5099 1.1613)">
			<stop  offset="0" style="stop-color:#E77C3A"/>
			<stop  offset="0.5466" style="stop-color:#E47A38"/>
			<stop  offset="0.7434" style="stop-color:#DC7333"/>
			<stop  offset="0.8833" style="stop-color:#D1692A"/>
			<stop  offset="0.9961" style="stop-color:#C15B21"/>
			<stop  offset="1" style="stop-color:#C05A20"/>
		</linearGradient>
		<path style="fill:url(#SVGID_00000022544981362248255910000008931029100638471834_);" d="M377.09,963.97
			c0.01-0.05,0.02-0.1,0.04-0.15c0.35-1.39,1.08-2.66,1.81-3.91c16.36-28.24,32.55-56.58,48.8-84.88
			c18.56-32.32,37.12-64.63,55.68-96.95c14.36-25,28.72-50,43.08-75c3.03-5.27,6.06-10.55,9.08-15.82
			c0,0,114.58-152.32,156.16,31.19c0,0-158.68,272.29-158.82,272.53c-2.15,3.69-6.78,7.1-9.83,10.07
			c-8.04,7.85-16.47,15.34-25.34,22.33c-18.96,14.93-43.89,32.31-69.75,31.15c-36.84-1.65-46.13-45.56-49.71-73.24
			c-0.55-4.21-0.99-8.43-1.33-12.66C376.85,967.09,376.74,965.5,377.09,963.97z"/>
		
			<linearGradient id="SVGID_00000014629756321323195590000004273786507780387230_" gradientUnits="userSpaceOnUse" x1="900.8367" y1="750.1351" x2="1230.703" y2="420.2687" gradientTransform="matrix(1.0446 -6.955818e-04 -6.955818e-04 1 -74.5099 1.1613)">
			<stop  offset="0" style="stop-color:#C15B28"/>
			<stop  offset="0.102" style="stop-color:#D0682B"/>
			<stop  offset="0.2441" style="stop-color:#DD7330"/>
			<stop  offset="0.4443" style="stop-color:#E67A33"/>
			<stop  offset="1" style="stop-color:#E97D34"/>
		</linearGradient>
		<path style="fill:url(#SVGID_00000014629756321323195590000004273786507780387230_);" d="M872.36,709.84l168.83-277.75
			c0,0,143.13-154.16,155.57,28.94l-177.16,290.1C1019.59,751.13,914.57,897.65,872.36,709.84z"/>
	</g>
	<g>
		
			<linearGradient id="SVGID_00000018938203105546955420000004163471982108563346_" gradientUnits="userSpaceOnUse" x1="-31.0886" y1="901.774" x2="199.1396" y2="901.774" gradientTransform="matrix(-0.9864 -1.357294e-03 -0.1357 1.0136 2505.0525 -49.5986)">
			<stop  offset="0" style="stop-color:#814894"/>
			<stop  offset="0.1993" style="stop-color:#7F4790"/>
			<stop  offset="0.3997" style="stop-color:#7B4889"/>
			<stop  offset="0.6008" style="stop-color:#75497E"/>
			<stop  offset="0.801" style="stop-color:#6C4A6E"/>
			<stop  offset="1" style="stop-color:#60485A"/>
		</linearGradient>
		<path style="fill:url(#SVGID_00000018938203105546955420000004163471982108563346_);" d="M2266.44,1014.58
			c7.56,25.26,24.1,40.6,53.33,40.6c0.4,0,68,0,68,0c0-1.05-12.25-55.32-16.55-72.11c-4.1-16.04-7.67-32.89-11.23-47.63
			c-8.45-35.01-16.9-70.02-25.36-105.03c-8.04-33.31-16.09-66.62-24.13-99.94c-2.76-11.42-5.55-22.84-8.31-34.26
			c0,0-15.2-38.18-49.73-15.78c-34.54,22.41-50.17,63.52-50.17,63.52"/>
		
			<linearGradient id="SVGID_00000018198087952160129780000001190021321978382006_" gradientUnits="userSpaceOnUse" x1="104.3631" y1="870.4474" x2="437.4604" y2="870.4474" gradientTransform="matrix(-0.9864 -1.357294e-03 -0.1357 1.0136 2505.0525 -49.5986)">
			<stop  offset="0" style="stop-color:#814894"/>
			<stop  offset="0.3047" style="stop-color:#804792"/>
			<stop  offset="0.4889" style="stop-color:#7D488C"/>
			<stop  offset="0.641" style="stop-color:#784984"/>
			<stop  offset="0.7756" style="stop-color:#724A79"/>
			<stop  offset="0.8975" style="stop-color:#6A4A6A"/>
			<stop  offset="1" style="stop-color:#60485A"/>
		</linearGradient>
		<path style="fill:url(#SVGID_00000018198087952160129780000001190021321978382006_);" d="M2302.21,696.23c0,0-15.06-77-65-85.04
			c0,0-25.54-3.8-40.25-0.06c-14.71,3.74-37.49,9.9-74.23,72.01c-10.49,17.73-21.05,35.43-31.61,53.12
			c-13.86,23.22-27.74,46.42-41.62,69.62c-13.65,22.8-27.31,45.6-40.98,68.4c-14.93,24.91-29.85,49.82-44.85,74.69
			c-4.79,7.95-9.59,15.9-14.38,23.85c-5,8.29-10.02,16.62-13.67,25.46s-5.89,18.31-5.02,27.27c3.22,33.26,53.2,34.59,74.46,22.49
			c13.39-7.62,27.16-23.32,36.05-36.13c39.04-56.22,70.76-116.35,104.91-175.22c10.72-18.48,21.48-36.95,32.3-55.38
			c1.27-2.17,2.5-4.37,3.83-6.51c1.92-3.09,3.84-6.19,5.76-9.28c4.32-6.95,10.07-14.62,14.4-21.56
			c6.43-10.29,12.01-18.84,19.12-28.73c5.31-7.38,11.41-14.12,17.69-20.71c1.41-1.48,2.82-2.83,4.18-4.35
			c1.34-1.51,2.77-2.94,4.25-4.3c4.33-3.95,9.27-7.3,14.46-9.72c3.05-1.42,6.26-2.44,9.47-2.68c6-0.45,11.43,1.9,15.92,5.15
			c4.18,3.03,7.69,6.92,10.69,11.15c1.58,2.24,2.82,3.7,4.04,6.2C2302.14,696.03,2302.19,696.2,2302.21,696.23z"/>
	</g>
	<g>
		
			<linearGradient id="SVGID_00000013193325544309328890000003325334063574388879_" gradientUnits="userSpaceOnUse" x1="-855.0712" y1="4424.0996" x2="-624.8429" y2="4424.0996" gradientTransform="matrix(0.9864 1.357294e-03 0.1357 -1.0136 2584.7378 5285.5278)">
			<stop  offset="0" style="stop-color:#814894"/>
			<stop  offset="0.1993" style="stop-color:#7F4790"/>
			<stop  offset="0.3997" style="stop-color:#7B4889"/>
			<stop  offset="0.6008" style="stop-color:#75497E"/>
			<stop  offset="0.801" style="stop-color:#6C4A6E"/>
			<stop  offset="1" style="stop-color:#60485A"/>
		</linearGradient>
		<path style="fill:url(#SVGID_00000013193325544309328890000003325334063574388879_);" d="M2500.94,700.52
			c-3.88-16.71-7.43-34.1-12.31-50.42c-7.56-25.26-24.1-40.6-53.34-40.6c-0.4,0-68,0-68,0c0,1.05,12.25,55.32,16.55,72.11
			c4.1,16.04,7.67,32.89,11.23,47.63c8.45,35.01,16.9,70.02,25.36,105.03c8.04,33.31,16.09,66.62,24.13,99.94
			c2.76,11.42,5.55,22.84,8.31,34.26c0,0,15.2,38.18,49.74,15.78c34.54-22.41,50.17-63.52,50.17-63.52"/>
		
			<linearGradient id="SVGID_00000053528932073815213550000015372903184211909560_" gradientUnits="userSpaceOnUse" x1="-719.6194" y1="4392.7729" x2="-386.5221" y2="4392.7729" gradientTransform="matrix(0.9864 1.357294e-03 0.1357 -1.0136 2584.7378 5285.5278)">
			<stop  offset="0" style="stop-color:#814894"/>
			<stop  offset="0.3047" style="stop-color:#804892"/>
			<stop  offset="0.4889" style="stop-color:#7D488C"/>
			<stop  offset="0.641" style="stop-color:#794985"/>
			<stop  offset="0.7756" style="stop-color:#744B7A"/>
			<stop  offset="0.8975" style="stop-color:#6C4B6C"/>
			<stop  offset="1" style="stop-color:#634B5C"/>
		</linearGradient>
		<path style="fill:url(#SVGID_00000053528932073815213550000015372903184211909560_);" d="M2452.86,968.45c0,0,15.06,77,65,85.04
			c0,0,25.54,3.8,40.25,0.06c14.71-3.74,37.49-9.9,74.23-72.01c10.49-17.73,21.05-35.43,31.61-53.12
			c13.86-23.22,27.74-46.42,41.62-69.62c13.65-22.8,27.31-45.6,40.98-68.4c14.93-24.91,29.85-49.82,44.85-74.69
			c4.79-7.95,9.59-15.9,14.38-23.85c5-8.29,10.02-16.62,13.67-25.46s5.89-18.31,5.02-27.27c-3.22-33.26-53.2-34.59-74.46-22.49
			c-13.39,7.62-27.16,23.32-36.05,36.13c-39.04,56.22-70.76,116.35-104.91,175.22c-10.72,18.48-21.48,36.95-32.3,55.38
			c-1.27,2.17-2.5,4.37-3.83,6.51c-1.92,3.09-3.84,6.19-5.76,9.28c-4.32,6.95-10.07,14.62-14.4,21.56
			c-6.43,10.29-12.01,18.84-19.12,28.73c-5.31,7.38-11.41,14.12-17.69,20.71c-1.41,1.48-2.82,2.83-4.18,4.35
			c-1.34,1.51-2.77,2.94-4.25,4.3c-4.33,3.95-9.27,7.3-14.46,9.72c-3.05,1.42-6.26,2.44-9.47,2.68c-6.01,0.45-11.43-1.9-15.92-5.15
			c-4.18-3.03-7.69-6.92-10.69-11.15c-1.58-2.24-2.82-3.7-4.04-6.2C2452.94,968.65,2452.88,968.48,2452.86,968.45z"/>
	</g>
	<g>
		<g>
			
				<linearGradient id="SVGID_00000051359263613570042350000008145953841072983723_" gradientUnits="userSpaceOnUse" x1="-794.2597" y1="900.0842" x2="-587.75" y2="900.0842" gradientTransform="matrix(-0.9864 -1.357294e-03 -0.1357 1.0136 2505.0525 -49.5986)">
				<stop  offset="0" style="stop-color:#814894"/>
				<stop  offset="0.1993" style="stop-color:#7F4790"/>
				<stop  offset="0.3997" style="stop-color:#7B4889"/>
				<stop  offset="0.6008" style="stop-color:#75497E"/>
				<stop  offset="0.801" style="stop-color:#6C4A6E"/>
				<stop  offset="1" style="stop-color:#60485A"/>
			</linearGradient>
			<path style="fill:url(#SVGID_00000051359263613570042350000008145953841072983723_);" d="M3147.55,983.31
				c-4.1-16.04-7.67-32.89-11.23-47.63c-8.45-35.01-16.75-71.03-25.2-106.03c-8.04-33.31-16.24-65.62-24.28-98.93
				c-2.76-11.42-5.55-22.84-8.31-34.26c0,0-15.2-38.18-49.74-15.78c-34.54,22.41-50.17,63.52-50.17,63.52s21.54,88.62,21.54,88.62
				c6.57,26.27,11.29,53.98,17.87,80.25c4.24,17.07,8.44,34.21,12.42,51.31c3.88,16.71,7.43,34.1,12.31,50.42
				c7.56,25.26,26.38,38.85,55.61,38.85c0.4,0,44.42-37.02,44.42-37.02C3142.8,1015.59,3151.85,1000.1,3147.55,983.31z"/>
			
				<linearGradient id="SVGID_00000151536053707089766780000005707092574799888310_" gradientUnits="userSpaceOnUse" x1="-682.5265" y1="869.6249" x2="-349.6618" y2="869.6249" gradientTransform="matrix(-0.9864 -1.357294e-03 -0.1357 1.0136 2505.0525 -49.5986)">
				<stop  offset="0" style="stop-color:#814894"/>
				<stop  offset="0.3047" style="stop-color:#804792"/>
				<stop  offset="0.4889" style="stop-color:#7D488C"/>
				<stop  offset="0.641" style="stop-color:#784984"/>
				<stop  offset="0.7756" style="stop-color:#724A79"/>
				<stop  offset="0.8975" style="stop-color:#6A4A6A"/>
				<stop  offset="1" style="stop-color:#60485A"/>
			</linearGradient>
			<path style="fill:url(#SVGID_00000151536053707089766780000005707092574799888310_);" d="M2739.99,949.21
				c-4.79,7.95-9.8,15.78-14.38,23.85c-4.25,7.48-9.2,16.93-12.85,25.77c-3.65,8.84-6.71,18-5.84,26.96
				c3.22,33.26,53.2,34.59,74.46,22.49c13.39-7.62,27.16-23.32,36.05-36.13c39.04-56.22,72.61-117.8,106.75-176.66
				c10.72-18.48,21.48-36.95,32.3-55.38c1.27-2.17,0.65-2.92,1.98-5.06c1.92-3.09,3.84-6.19,5.76-9.28
				c4.32-6.95,10.07-14.62,14.4-21.56c6.43-10.29,12.01-18.84,19.12-28.73c5.31-7.38,11.41-14.12,17.69-20.71
				c1.41-1.48,2.82-2.83,4.18-4.35c1.34-1.51,2.77-2.94,4.25-4.3c4.33-3.95,9.27-7.3,14.46-9.72c3.05-1.42,6.26-2.44,9.47-2.68
				c6.01-0.45,11.43,1.9,15.92,5.15c4.18,3.03,7.69,6.92,10.69,11.15c1.58,2.24,2.82,3.7,4.04,6.2c0.02,0.04,0.07,0.2,0.09,0.24
				c0,0-15.06-77-65-85.04c0,0-25.54-3.8-40.25-0.06c-14.71,3.74-37.49,9.9-74.23,72.01"/>
		</g>
		<g>
			
				<linearGradient id="SVGID_00000064337857689059616030000009517689398493037458_" gradientUnits="userSpaceOnUse" x1="-1359.7719" y1="-46.1791" x2="-1129.5436" y2="-46.1791" gradientTransform="matrix(-0.9864 -1.357294e-03 -0.1357 1.0136 2183.8628 909.4957)">
				<stop  offset="0" style="stop-color:#814894"/>
				<stop  offset="0.1993" style="stop-color:#7F4790"/>
				<stop  offset="0.3997" style="stop-color:#7B4889"/>
				<stop  offset="0.6008" style="stop-color:#75497E"/>
				<stop  offset="0.801" style="stop-color:#6C4A6E"/>
				<stop  offset="1" style="stop-color:#60485A"/>
			</linearGradient>
			<path style="fill:url(#SVGID_00000064337857689059616030000009517689398493037458_);" d="M3420.34,696.31
				c0,0-15.2-38.18-49.74-15.78s-50.17,63.52-50.17,63.52s21.54,88.62,21.54,88.62c6.57,26.27,11.3,53.98,17.87,80.25
				c4.24,17.07,8.44,34.21,12.42,51.31c3.88,16.71,7.43,34.1,12.31,50.42c7.56,25.26,24.1,40.6,53.34,40.6c0.4,0,68,0,68,0
				c0-1.05-12.25-55.32-16.55-72.11"/>
			
				<linearGradient id="SVGID_00000110454601076875843220000006911136987282411166_" gradientUnits="userSpaceOnUse" x1="-1224.3201" y1="-78.0046" x2="-889.2254" y2="-78.0046" gradientTransform="matrix(-0.9864 -1.357294e-03 -0.1357 1.0136 2183.8628 909.4957)">
				<stop  offset="0" style="stop-color:#814894"/>
				<stop  offset="0.3047" style="stop-color:#804792"/>
				<stop  offset="0.4889" style="stop-color:#7D488C"/>
				<stop  offset="0.641" style="stop-color:#784984"/>
				<stop  offset="0.7756" style="stop-color:#724A79"/>
				<stop  offset="0.8975" style="stop-color:#6A4A6A"/>
				<stop  offset="1" style="stop-color:#60485A"/>
			</linearGradient>
			<path style="fill:url(#SVGID_00000110454601076875843220000006911136987282411166_);" d="M3320.43,744.06
				c6.43-10.29,12.01-18.84,19.12-28.73c5.31-7.38,11.41-14.12,17.69-20.71c1.41-1.48,2.82-2.83,4.18-4.35
				c1.34-1.51,2.77-2.94,4.25-4.3c4.33-3.95,9.27-7.3,14.46-9.72c3.05-1.42,6.26-2.44,9.47-2.68c6.01-0.45,11.43,1.9,15.92,5.15
				c4.18,3.03,7.69,6.92,10.69,11.15c1.58,2.24,2.82,3.7,4.04,6.2c0.02,0.04,0.07,0.2,0.09,0.24c0,0-15.06-77-65-85.04
				c0,0-25.54-3.8-40.25-0.06c-14.71,3.74-37.49,9.9-74.23,72.01c-10.49,17.73-21.05,35.43-31.61,53.12
				c-13.86,23.22-25.89,44.98-39.78,68.18c-13.65,22.8-29.16,47.04-42.82,69.84c-14.93,24.91-29.85,49.82-44.85,74.69
				c-4.79,7.95-9.59,15.9-14.38,23.85c-5,8.29-10.02,16.62-13.67,25.46s-9.21,21.73-7.06,26.85c12.34,29.4,55.24,35,76.5,22.9
				c13.39-7.62,27.16-23.32,36.05-36.13"/>
		</g>
	</g>
</g>
<text transform="matrix(1 0 0 1 354.2075 1847.6411)"><tspan x="0" y="0" class="st21 st22">Bütün yazılarda istifadə olunan font</tspan><tspan x="0" y="144" class="st23 st22">Bodrum Sweet</tspan></text>
</svg>
