<svg xmlns="http://www.w3.org/2000/svg" viewBox="0 0 48 48" id="Profit"><path d="M10.5 34.5h-6c-.83 0-1.5.67-1.5 1.5v7c0 .83.67 1.5 1.5 1.5h6c.83 0 1.5-.67 1.5-1.5v-7c0-.83-.67-1.5-1.5-1.5zm-1.5 7H6v-4h3v4zm12.5-15h-6c-.83 0-1.5.67-1.5 1.5v15c0 .83.67 1.5 1.5 1.5h6c.83 0 1.5-.67 1.5-1.5V28c0-.83-.67-1.5-1.5-1.5zm-1.5 15h-3v-12h3v12zm12.5-23h-6c-.83 0-1.5.67-1.5 1.5v23c0 .83.67 1.5 1.5 1.5h6c.83 0 1.5-.67 1.5-1.5V20c0-.83-.67-1.5-1.5-1.5zm-1.5 23h-3v-20h3v20zm12.5-31h-6c-.83 0-1.5.67-1.5 1.5v31c0 .83.67 1.5 1.5 1.5h6c.83 0 1.5-.67 1.5-1.5V12c0-.83-.67-1.5-1.5-1.5zm-1.5 31h-3v-28h3v28zm-29.5-30h4c.83 0 1.5-.67 1.5-1.5s-.67-1.5-1.5-1.5h-1.59c-.21-.58-.76-1-1.41-1-.67 0-1.23.44-1.42 1.04C10.35 8.75 9 10.21 9 12c0 1.93 1.57 3.5 3.5 3.5h2c.28 0 .5.22.5.5s-.22.5-.5.5h-4c-.83 0-1.5.67-1.5 1.5s.67 1.5 1.5 1.5h1.59c.21.58.76 1 1.41 1 .67 0 1.23-.44 1.42-1.04C16.65 19.25 18 17.79 18 16c0-1.93-1.57-3.5-3.5-3.5h-2c-.28 0-.5-.22-.5-.5s.22-.5.5-.5z" fill="#34a853" class="color000000 svgShape"></path><path d="M13.5 3.5C7.71 3.5 3 8.21 3 14s4.71 10.5 10.5 10.5S24 19.79 24 14 19.29 3.5 13.5 3.5zm0 18C9.36 21.5 6 18.14 6 14s3.36-7.5 7.5-7.5S21 9.86 21 14s-3.36 7.5-7.5 7.5z" fill="#34a853" class="color000000 svgShape"></path></svg>